<svg width="104" height="40" viewBox="0 0 104 40" fill="none" xmlns="http://www.w3.org/2000/svg">
<g clip-path="url(#clip0_71_186)">
<path fill-rule="evenodd" clip-rule="evenodd" d="M102.296 0.19598C101.173 0.490659 100.749 0.808366 100.363 1.64561C100.301 1.78123 99.992 2.06856 99.6469 2.31224C99.3132 2.54775 98.9761 2.79508 98.8978 2.86183C98.8194 2.92859 98.733 2.98323 98.7058 2.98323C98.5558 2.98323 95.5249 5.15218 95.0577 5.59396C94.9138 5.73007 94.7749 5.82018 94.749 5.79432C94.6791 5.72457 94.8583 4.54206 94.9637 4.37766C95.0136 4.29975 95.3045 4.05792 95.6101 3.84035C96.3603 3.30627 96.8656 2.79459 97.0428 2.38967C97.2282 1.96583 97.4223 0.941561 97.3518 0.758255C97.2921 0.602591 97.0002 0.629991 96.5465 0.833987C96.4055 0.897352 96.1501 0.99717 95.979 1.05577C94.9767 1.39918 94.3316 2.78667 94.6121 3.99626C94.6904 4.3341 94.6144 5.26881 94.4621 5.83886C94.4106 6.03178 94.221 6.31134 93.9596 6.57991C93.7288 6.81705 93.3033 7.29543 93.0141 7.64289C91.0569 9.99475 90.1274 10.5633 87.2764 11.1527C86.8567 11.2394 86.4833 11.2805 86.4468 11.2439C86.3819 11.1791 86.5153 11.0394 87.7439 9.88564C88.0707 9.57884 88.4615 9.15994 88.6124 8.95465C88.8428 8.64146 88.9403 8.57437 89.2192 8.53703C89.9566 8.43819 90.7521 7.37238 91.0418 6.0949C91.1123 5.78373 91.2187 5.37485 91.2781 5.1863C91.3714 4.89008 91.3695 4.82688 91.2642 4.72156C91.0858 4.54327 90.9556 4.56743 90.3328 4.89444C89.2548 5.46052 88.7271 6.37164 88.7271 7.66698V8.38873L88.251 8.97954C87.8319 9.49948 87.2031 10.0956 87.0737 10.0956C87.0488 10.0956 87.0285 9.98303 87.0285 9.84531C87.0285 9.66847 87.1234 9.48743 87.352 9.22791C87.7568 8.76835 87.8863 8.33683 87.7564 7.88035C87.7047 7.6985 87.6162 7.32769 87.5597 7.05637C87.4414 6.48729 87.3873 6.37778 87.2252 6.37778C87.0321 6.37778 86.6201 6.79685 86.4134 7.20355C86.1183 7.78418 86.1502 8.23266 86.5432 9.02537C86.9979 9.94255 86.9821 10.1836 86.4293 10.7692C86.2695 10.9385 86.1388 11.1268 86.1388 11.1877C86.1388 11.2486 86.1114 11.3152 86.0781 11.3356C86.0448 11.356 85.5078 11.432 84.885 11.5044C83.1588 11.7053 82.5767 11.7911 82.1349 11.9103C81.9124 11.9701 81.5339 12.064 81.2937 12.1187C80.6988 12.2542 80.1869 12.4698 78.5417 13.2781C77.298 13.8891 75.8934 14.417 75.0674 14.5839C74.723 14.6534 74.7781 14.5485 75.2599 14.2172C75.4558 14.0826 75.7872 13.7503 75.9963 13.4788C76.4225 12.9253 76.4344 12.9188 78.3559 12.1884C79.8053 11.6374 80.2309 11.3897 80.804 10.7631C81.2904 10.2313 81.6252 9.59969 81.8497 8.79025C82.1184 7.82135 82.0557 7.5093 81.5923 7.5093C81.3032 7.5093 79.7299 7.87591 79.3038 8.04249C78.5785 8.32617 77.8486 8.9397 77.3706 9.66742C77.1156 10.0556 76.6532 11.2073 76.7133 11.3044C76.7382 11.3447 76.7215 11.4004 76.6763 11.4284C76.6311 11.4563 76.5941 11.5649 76.5941 11.6697C76.5941 12.0997 75.8588 13.336 75.2867 13.8679C74.7438 14.3727 73.5672 14.8751 72.388 15.1057C69.8681 15.5984 68.2358 16.23 65.8392 17.6394C65.4182 17.8869 65.0643 18.0801 65.0528 18.0686C65.0413 18.0571 65.1737 17.7769 65.3471 17.446C65.5204 17.1151 65.8081 16.4102 65.9864 15.8797L66.3105 14.915L66.8786 14.4855C67.1911 14.2493 67.4686 14.0559 67.4952 14.0559C67.5219 14.0559 67.758 13.9104 68.0201 13.7326C68.2822 13.5548 68.5214 13.4093 68.5518 13.4093C68.5821 13.4093 68.8541 13.2264 69.156 13.0027C70.7322 11.8351 71.4843 10.4391 71.4015 8.83503C71.3797 8.41055 71.3569 8.35511 71.1948 8.33207C71.0341 8.30928 70.0891 8.74976 68.2889 9.68649C67.6643 10.0116 66.7902 10.8777 66.5108 11.4484C66.2432 11.995 66.0855 12.7295 66.0811 13.4498C66.0724 14.8587 65.8139 15.9522 65.1829 17.2484C64.8714 17.8885 64.3258 18.636 64.0685 18.7753C63.7811 18.9311 62.6723 19.7927 61.6843 20.6281C61.1135 21.1108 60.6339 21.493 60.6184 21.4776C60.603 21.4621 60.6576 21.2498 60.7399 21.0058C60.854 20.6678 60.999 20.4601 61.3491 20.1336C61.6018 19.8979 61.9494 19.6162 62.1215 19.5076C62.453 19.2985 63.0521 18.5975 63.1889 18.2587C63.2338 18.1476 63.3182 17.9458 63.3765 17.8105C63.5155 17.4873 63.6233 16.9952 63.7726 16.0019C63.994 14.5291 63.9323 14.3607 63.3192 14.7665C63.1242 14.8956 62.6193 15.1795 62.1972 15.3974C60.9462 16.0433 60.2496 16.8755 60.0046 18.0172C59.8946 18.5297 59.95 18.9253 60.2586 19.8321C60.3901 20.2183 60.4977 20.6574 60.4977 20.8079C60.4977 21.2036 60.2099 21.912 59.9471 22.1636L59.7205 22.3806L59.3855 22.1344C58.9757 21.8333 58.7994 21.404 58.556 20.1154C58.3647 19.1026 58.1789 18.567 57.6451 17.4903C57.3082 16.8109 57.2802 16.7039 57.2243 15.8845C57.1284 14.4786 56.7668 13.4912 56.1887 13.0571C55.768 12.7413 54.5933 12.1855 54.4035 12.2126C54.1588 12.2474 54.1496 12.458 54.3481 13.4693C54.534 14.4162 54.902 15.2969 55.2991 15.7452C55.4329 15.8964 55.8969 16.2419 56.33 16.513C57.0739 16.9786 57.1343 17.0374 57.418 17.5717C57.8921 18.465 58.5338 20.6054 58.3263 20.6016C58.2535 20.6003 57.7054 19.8092 57.2431 19.0382C56.7181 18.1627 56.3752 17.7642 55.8432 17.4113C55.1798 16.9713 54.6174 16.7985 53.8278 16.7919C52.8048 16.7835 52.6214 16.893 52.9954 17.2897C53.0955 17.3958 53.3776 17.7268 53.6223 18.0252C54.3304 18.8888 54.8177 19.1828 55.6913 19.2738C56.4855 19.3564 57.1335 19.604 57.491 19.9612C57.8466 20.3165 58.5218 21.3107 58.4537 21.3786C58.4296 21.4028 58.2143 21.3331 57.9753 21.2239C57.2112 20.8746 56.9632 20.8053 55.4422 20.5163C55.2198 20.474 54.6374 20.3856 54.148 20.3199C52.1601 20.0531 51.4187 19.918 51.1955 19.7824C50.8486 19.5716 50.6841 19.1912 50.6765 18.582C50.6704 18.0958 50.6922 18.0276 50.9689 17.6668C51.4014 17.1029 51.6097 16.6247 51.6588 16.0834C51.7207 15.4014 51.6389 15.0956 51.2711 14.6341C50.735 13.9613 50.109 13.6798 50.0302 14.0761C49.8369 15.0477 49.7396 15.6928 49.7396 16.0032C49.7397 16.421 49.9351 17.0469 50.2581 17.6642C50.4435 18.0184 50.4719 18.1611 50.4514 18.6339L50.4273 19.1882L50.2039 18.865C50.0811 18.6872 49.8136 18.1417 49.6095 17.6526C49.4054 17.1636 49.0817 16.4307 48.8902 16.0239C48.6554 15.5253 48.4845 14.9986 48.3658 14.4074C48.0658 12.9137 48.0482 12.8425 47.8919 12.4895C47.6868 12.0262 46.8587 11.157 46.2404 10.7559C45.6425 10.3682 44.7807 10.1088 43.8653 10.0409C43.1607 9.98869 42.7835 10.0415 42.7835 10.1925C42.7835 10.2441 43.1201 10.9068 43.5317 11.6652C44.188 12.8747 44.3598 13.1247 44.9308 13.701C45.2887 14.0622 45.6709 14.3857 45.7801 14.4196C45.8892 14.4535 46.0695 14.5435 46.1807 14.6197C46.2919 14.6959 46.7899 14.9134 47.2874 15.1032C47.7848 15.2929 48.269 15.5302 48.3633 15.6305C48.4575 15.7307 48.8268 16.4813 49.1839 17.2985C49.834 18.7858 50.0704 19.1979 50.4611 19.5244C50.5759 19.6205 50.6502 19.719 50.626 19.7434C50.6019 19.7677 50.3835 19.7393 50.1407 19.6801C49.8979 19.6209 49.4809 19.5261 49.214 19.4695C48.5047 19.319 46.6887 18.5156 45.2727 17.7258C43.9766 17.0029 42.8864 16.4574 42.3829 16.2799C42.2185 16.222 41.9008 15.9979 41.677 15.782C41.4532 15.5661 41.063 15.2622 40.8099 15.1066C39.6087 14.3683 39.3187 14.0121 39.0989 13.0052C39.0261 12.6718 38.9362 11.9081 38.8992 11.308C38.8621 10.7079 38.7915 10.0816 38.742 9.91628C38.5656 9.32692 38.0542 8.89338 37.1444 8.56184C36.4114 8.29481 36.3691 8.33134 36.423 9.18669C36.4927 10.2945 36.6452 10.6868 37.2301 11.2628C37.504 11.5325 37.8372 11.8075 37.9707 11.874C38.5031 12.1393 38.7246 12.442 38.9443 13.2048C39.0591 13.6034 39.1926 13.9771 39.2407 14.0352C39.3919 14.2171 39.2702 14.2195 38.8152 14.0436C38.5731 13.9501 37.9201 13.753 37.364 13.6058C36.8079 13.4584 36.1181 13.2721 35.8309 13.1916L35.3088 13.0452L34.7794 12.0495C34.4882 11.5019 34.1295 10.9322 33.9822 10.7834C33.613 10.4106 32.8096 10.1097 31.8343 9.97915C31.3834 9.91878 30.9234 9.83448 30.8122 9.79173C30.701 9.74905 30.4735 9.68924 30.3067 9.65877C30.0417 9.61036 30.0034 9.62313 30.0034 9.75956C30.0034 9.84556 30.1265 10.0947 30.2769 10.3132C30.4274 10.5318 30.7582 11.0724 31.0121 11.5145C31.266 11.9566 31.6216 12.4707 31.8023 12.6571C32.4038 13.2773 33.2541 13.5073 34.3138 13.3364C34.928 13.2374 35.1724 13.2718 36.1507 13.5946C36.3509 13.6606 36.8605 13.7945 37.2832 13.892C37.7058 13.9895 38.1608 14.107 38.2942 14.153C38.6019 14.2592 39.9794 14.8878 40.0333 14.9466C40.0556 14.9708 40.2595 15.1082 40.4867 15.2516C40.9403 15.5382 41.249 15.834 41.0945 15.834C41.0415 15.834 40.6991 15.7646 40.3337 15.6797C39.9683 15.5949 39.3781 15.4818 39.0222 15.4285C38.2007 15.3055 35.9964 15.316 34.7352 15.4489C34.2014 15.5052 33.1094 15.547 32.3086 15.5417C30.8365 15.5322 30.6094 15.5038 27.9003 14.9898C27.5666 14.9265 26.9733 14.8507 26.5818 14.8214L25.87 14.7681L25.4828 14.2385C25.1063 13.7235 25.0895 13.6754 24.8701 12.4882C24.6521 11.3084 24.4582 10.7542 24.1268 10.364C24.0446 10.2671 23.8815 10.0654 23.7645 9.91571C23.4959 9.57197 22.7633 9.1837 22.055 9.00961C21.4463 8.86 20.1816 8.84335 19.7421 8.9793C19.4804 9.0602 19.4722 9.07507 19.5212 9.38139C19.6063 9.9128 20.649 11.5132 21.2782 12.0779C21.8527 12.5935 22.1589 12.7702 23.3553 13.2764C24.0342 13.5636 24.6772 13.856 24.7843 13.926C24.9728 14.0495 25.5179 14.7691 25.4612 14.8198C25.3652 14.9059 23.4178 14.9991 22.9884 14.9383C22.515 14.8712 21.3697 14.5231 20.3883 14.1479C18.997 13.6162 17.6435 12.4934 15.8444 10.3785C13.9493 8.15086 12.4612 6.82771 11.0759 6.13846C10.5071 5.85558 10.389 5.74114 10.0288 5.12454C9.86474 4.84377 9.75603 4.49429 9.67352 3.98196C9.60808 3.57598 9.48157 3.07884 9.39227 2.87711C9.18076 2.39928 8.64432 1.82002 8.06517 1.44396C7.54385 1.10547 6.58995 0.805784 6.45698 0.938656C6.40068 0.994909 6.58882 1.44307 7.04664 2.34343C7.7654 3.75662 8.25663 4.38049 8.81749 4.59233C9.36016 4.7973 9.48845 4.88725 9.7489 5.24529C9.89401 5.44476 10.0034 5.61748 9.99181 5.62896C9.9652 5.65555 9.31915 5.44557 8.68969 5.20577C8.42277 5.1041 7.76758 4.90454 7.23373 4.76229C5.11854 4.1988 5.07535 4.17237 4.21245 2.91347C3.71613 2.18938 3.44532 1.93059 2.86585 1.62686C2.13932 1.24595 1.88582 1.17361 1.16723 1.14185C-0.0376632 1.08859 -0.301839 1.32847 0.338137 1.89447C0.52725 2.06169 1.01969 2.5206 1.43253 2.9142C2.4039 3.84035 3.08028 4.19023 4.13642 4.31276C5.18325 4.43415 5.63404 4.53745 6.78158 4.91861C9.06121 5.67584 11.3468 6.70688 12.2487 7.38483C12.5601 7.61897 13.0515 8.03222 13.3407 8.30322L13.8664 8.796L13.1015 8.74556C12.3711 8.69731 12.3036 8.67645 11.6051 8.28188C10.5489 7.68532 10.2733 7.56741 9.83699 7.5253C9.29432 7.47293 7.38119 7.74408 7.25954 7.8907C7.18067 7.98558 7.27951 8.11651 7.80512 8.61317C9.45957 10.1764 10.1321 10.3065 11.8035 9.38713C12.4413 9.03636 12.5325 9.00904 13.0576 9.01171C13.369 9.01332 13.7694 9.06352 13.9473 9.12316C14.3122 9.24553 15.2075 10.0618 15.6951 10.7164C15.8665 10.9468 16.4716 11.6073 17.0397 12.1842C18.1398 13.3015 18.7497 13.7486 20.2969 14.5716C21.1133 15.0058 21.134 15.0234 20.8318 15.0246C20.6589 15.0252 20.0401 14.8713 19.4568 14.6823C18.4598 14.3594 18.3427 14.3392 17.5063 14.346C16.4563 14.3545 15.9093 14.5245 14.6252 15.2411C13.7735 15.7164 13.6372 15.8313 13.7074 16.0141C13.7612 16.1541 15.8817 17.0865 16.4144 17.2044C17.7233 17.494 18.7298 17.1371 20.1879 15.8663C20.9614 15.1923 21.1259 15.1597 22.5883 15.3911C23.4434 15.5263 23.6969 15.5331 24.9745 15.4547C26.3487 15.3704 27.0174 15.3994 27.9003 15.5817C29.6216 15.9372 30.059 16.0179 30.7313 16.1042L31.4998 16.203L30.5898 16.6774C30.0893 16.9383 29.6798 17.1826 29.6798 17.2203C29.6798 17.258 29.6343 17.29 29.5787 17.2913C29.5231 17.2927 29.2046 17.4932 28.8709 17.7368C27.0333 19.0789 25.429 20.0368 25.0191 20.0368C24.5957 20.0368 23.1986 19.5583 22.925 19.3197C22.2162 18.7014 21.3968 18.3395 20.7055 18.3395C19.7014 18.3395 18.3947 18.9884 18.5606 19.4046C18.5841 19.4634 19.0663 19.7193 19.6321 19.9733C20.9611 20.5698 21.3333 20.6204 22.1976 20.3223C22.5462 20.2022 22.9166 20.048 23.0209 19.9796C23.1944 19.866 23.2677 19.8714 23.8771 20.0419C24.2436 20.1445 24.5764 20.2564 24.6167 20.2906C24.6569 20.3248 24.4021 20.4842 24.0505 20.6449C22.2522 21.4666 21.0041 21.7131 18.113 21.8177C14.9871 21.9306 13.2769 22.1401 11.8847 22.5801C11.6845 22.6434 10.9747 22.7359 10.3074 22.7857C8.42422 22.9262 7.82315 23.1032 7.20655 23.6988C6.74202 24.1474 6.28614 25.0413 6.31931 25.4386C6.34382 25.7329 6.34632 25.7348 6.70797 25.7301C7.31947 25.7223 8.08183 25.6087 8.60064 25.4482C9.37658 25.2081 9.91319 24.8329 10.6259 24.0322C10.9846 23.6292 11.3894 23.2202 11.5253 23.1232C11.8099 22.9204 12.3475 22.7492 13.3811 22.5321C14.1312 22.3747 14.2508 22.3595 15.4842 22.2652C15.8846 22.2345 16.2941 22.1928 16.3942 22.1723C16.9198 22.0649 16.2666 22.4715 15.6055 22.6633C15.4943 22.6955 15.2759 22.7761 15.1202 22.8422C13.7832 23.4103 13.2561 24.0432 13.2317 25.1096L13.2194 25.654L13.5075 25.6461C13.6673 25.6418 14.1356 25.4768 14.559 25.2759C15.5431 24.8089 15.8109 24.5154 16.2132 23.4633C16.3815 23.0234 16.5929 22.5817 16.6832 22.4815C16.9066 22.2338 17.2981 22.1395 18.113 22.1371C18.8648 22.1348 20.8044 21.952 21.5102 21.8168C22.088 21.7061 23.5227 21.2494 23.5791 21.1582C23.6032 21.1193 23.6732 21.0875 23.7347 21.0875C23.9924 21.0875 26.7656 19.6339 26.8338 19.4631C26.8478 19.428 26.9065 19.4175 26.9643 19.4396C27.0503 19.4726 27.0499 19.5341 26.9626 19.7786C26.9039 19.9428 26.8543 20.1563 26.8523 20.2528C26.8448 20.6261 26.0965 21.5537 25.3268 22.1441C24.9191 22.4568 24.4984 22.8289 24.3918 22.971C23.974 23.5279 23.4623 24.7692 23.3943 25.3903C23.3445 25.8464 23.468 25.9399 23.8768 25.7557C24.021 25.6907 24.5213 25.5022 24.9884 25.3367C26.1193 24.9363 26.3378 24.8229 26.7126 24.4416C27.4662 23.6749 27.6288 22.7222 27.2611 21.2264C27.0897 20.5285 27.078 20.386 27.1616 20.0126C27.3035 19.3791 27.4811 19.1524 28.3559 18.4877C29.5273 17.5977 30.0056 17.3018 31.3751 16.6196L32.221 16.1982L33.4782 16.1425C34.1695 16.1119 35.1538 16.0479 35.6654 16.0004C37.2276 15.8551 38.6738 15.9017 39.7675 16.1323C41.5726 16.5129 42.5867 16.9242 45.4123 18.4216L46.5447 19.0218L46.1807 19.0804C45.3123 19.2203 44.0826 19.5397 43.7805 19.7039C43.6993 19.7481 43.3416 19.9277 42.9857 20.103C42.6298 20.2783 42.011 20.6139 41.6106 20.8488C40.0674 21.754 39.9186 21.7902 38.9701 21.4912C38.4389 21.3238 38.193 21.1573 37.2134 20.302C36.4635 19.6472 36.2282 19.5334 35.5308 19.4883C34.7047 19.4347 34.1262 19.5237 33.8454 19.7474L33.6094 19.9355L34.0062 20.2084C34.2245 20.3585 34.6715 20.7273 34.9996 21.0278C35.8345 21.7927 35.9659 21.8514 36.8383 21.8497C37.2387 21.8489 37.8211 21.8198 38.1325 21.7852C38.5219 21.7419 38.8605 21.7563 39.2168 21.8313L39.7349 21.9403L38.9337 22.3167C37.8803 22.8116 37.1506 23.0677 36.3194 23.2342C35.4307 23.4123 34.9141 23.3555 34.0072 22.9804C33.0343 22.578 32.1563 22.5086 31.5658 22.7876C30.7176 23.1884 29.7137 24.0231 29.8023 24.254C29.8578 24.3983 31.1744 25.0026 31.724 25.1359C31.9368 25.1875 32.4085 25.2132 32.7755 25.193C33.5651 25.1497 33.8718 25.0125 34.8161 24.2799C35.6257 23.6518 35.6513 23.6391 36.4213 23.4811C37.7017 23.2185 38.9821 22.6926 40.5793 21.7732C40.8574 21.6132 41.0848 21.5033 41.0848 21.5291C41.0848 21.5549 40.865 22.0078 40.5964 22.5356C40.1784 23.3565 40.0703 23.5088 39.8482 23.5892C38.4694 24.0885 37.8892 24.7423 37.4233 26.3217C37.2632 26.8646 37.2601 26.9184 37.3824 27.0405C37.5046 27.1627 37.5709 27.1502 38.2684 26.8731C38.683 26.7084 39.1645 26.4759 39.3384 26.3562C39.7974 26.0406 40.097 25.4303 40.2323 24.5347C40.3641 23.6627 40.3975 23.5662 40.947 22.4713C41.5457 21.2785 41.7866 21.035 42.9676 20.4297C44.4119 19.6894 45.2176 19.4407 46.5042 19.3376C47.0548 19.2936 47.1932 19.316 48.0007 19.5806C48.49 19.741 49.1452 19.9295 49.4566 19.9995C50.9688 20.3391 51.4565 20.4323 52.1663 20.517C53.4074 20.665 53.4005 20.6617 52.9462 20.8918C51.905 21.4192 50.7676 22.5143 49.7212 23.9971C49.5173 24.2861 49.221 24.7043 49.0629 24.9266C48.9046 25.1488 48.6037 25.6145 48.394 25.9614C47.9408 26.7115 47.6149 26.9866 46.9087 27.2155C45.9619 27.5223 45.6944 27.5203 44.4766 27.1975C43.2514 26.8726 42.5875 26.8314 41.7513 27.0285C41.1683 27.1658 40.4204 27.5232 40.0313 27.8503C39.3983 28.3825 38.6624 29.9736 38.9108 30.2728C39.0213 30.4058 39.1476 30.4052 40.8826 30.2647C42.275 30.1518 42.9981 29.9697 43.538 29.5958C43.7085 29.4779 44.122 29.0797 44.4571 28.7109C45.2182 27.873 45.4775 27.7089 46.1085 27.665C46.3778 27.6463 46.802 27.5594 47.051 27.4719C47.3001 27.3845 47.5168 27.3258 47.5326 27.3415C47.5483 27.3572 47.3723 27.675 47.1414 28.0477C46.1389 29.6659 45.1826 30.7508 43.8995 31.7256C43.4679 32.0535 43.0923 32.3218 43.0648 32.3218C43.0373 32.3218 42.7534 32.4795 42.434 32.6721C40.8623 33.6202 40.191 33.9199 38.9009 34.2494C36.8318 34.778 36.1357 35.1048 35.5607 35.8178C34.8366 36.7158 34.5223 37.5877 34.3966 39.0482C34.3479 39.6133 34.4806 40 34.7232 40C34.8169 40 35.4134 39.7753 36.1103 39.4774C36.2438 39.4204 36.5168 39.3293 36.717 39.2749C38.2058 38.8709 39.4488 37.5457 40.3044 35.4503C40.9519 33.8647 40.9303 33.8914 42.0797 33.2513C42.6385 32.9401 43.1648 32.6219 43.2493 32.5441C43.3337 32.4663 43.4318 32.4027 43.4671 32.4027C43.5928 32.4027 44.5318 31.6867 45.1189 31.1431L45.7153 30.591L45.6579 30.9513C45.6264 31.1494 45.4712 31.7662 45.3132 32.3218C45.0875 33.115 45.0238 33.4884 45.0168 34.0595C45.0087 34.7211 45.0314 34.8367 45.2685 35.3369C45.5461 35.9226 46.4446 36.9287 46.69 36.9287C46.8409 36.9287 46.993 36.4745 47.1904 35.4335C47.4474 34.0789 47.3001 33.27 46.5939 32.1586C45.7452 30.8229 45.7507 30.6797 46.7042 29.291C47.0705 28.7576 47.7621 27.6665 48.2413 26.8663C48.7204 26.0662 49.2354 25.2386 49.3856 25.0274C49.5359 24.8162 49.6588 24.6244 49.6588 24.6012C49.6588 24.4537 51.5562 22.2292 51.6218 22.2998C51.6424 22.3221 51.5791 22.7423 51.4811 23.2337C51.3502 23.8899 51.2284 24.2547 51.0223 24.6076C50.6618 25.2253 50.5031 25.636 50.4307 26.1389C50.3915 26.411 50.2597 26.7146 50.0274 27.0684C49.5277 27.8292 49.3611 28.1866 49.2457 28.7448C49.0446 29.7177 49.3986 30.9071 50.112 31.6548C50.3112 31.8636 50.4903 31.9848 50.5602 31.9581C50.6841 31.9105 51.2763 30.7726 51.5012 30.15C51.5846 29.9191 51.6367 29.5273 51.6374 29.1264C51.6385 28.489 51.6289 28.4578 51.1235 27.4494L50.6084 26.4218L50.7061 25.9259C50.8049 25.4239 51.1759 24.5629 51.2934 24.5629C51.3287 24.5629 51.3587 24.7357 51.3604 24.9468C51.3639 25.4221 51.5871 26.3482 51.8589 27.015C51.9161 27.1555 52.1725 27.6852 52.4286 28.1921C52.8823 29.09 52.8942 29.1308 52.8927 29.7682C52.8919 30.1281 52.8391 30.8856 52.7754 31.4516C52.6061 32.9571 52.7755 33.7237 53.4794 34.6377C53.9076 35.1936 54.5429 35.7972 54.6999 35.7972C54.902 35.7972 55.0557 35.5234 55.4032 34.5445C55.7003 33.7073 55.7475 33.4842 55.7484 32.9136C55.7503 31.6286 55.2924 30.723 54.2483 29.9466C53.4936 29.3853 53.3163 29.1871 52.8595 28.3942C51.8653 26.6686 51.4853 25.1648 51.6721 23.6962C51.8684 22.1537 52.118 21.6865 52.9803 21.2483C53.7281 20.8682 54.2413 20.7697 55.0141 20.858C55.383 20.9001 55.7941 20.9443 55.9276 20.9562C56.2968 20.9891 57.3163 21.3125 57.9497 21.5975C58.7095 21.9394 58.9185 22.1382 58.518 22.1382C58.4079 22.1382 58.027 22.2147 57.6713 22.3083C57.0546 22.4706 57.0069 22.4723 56.6379 22.3452C55.358 21.9043 54.1078 22.2022 53.1302 23.181C52.5996 23.7123 52.2554 24.3379 52.3533 24.5929C52.4536 24.8541 54.3444 24.8689 54.9367 24.6131C55.1036 24.541 55.3677 24.4279 55.5239 24.3617C55.8747 24.2131 56.446 23.6943 56.8212 23.1836C57.1927 22.6779 57.5517 22.4776 58.2805 22.3693C58.8757 22.2808 59.2857 22.3484 59.4143 22.5562C59.4394 22.5968 59.2632 22.8557 59.0228 23.1317C58.4007 23.8456 57.9598 24.4571 57.716 24.9441C57.3082 25.7584 57.4871 25.7104 58.0685 24.8496C58.746 23.8463 59.5506 22.9476 59.772 22.9468C59.8401 22.9466 60.1302 23.1828 60.4168 23.4718C60.9095 23.9686 61.1448 24.1094 61.1448 23.9076C61.1448 23.8585 60.8841 23.5496 60.5654 23.2213C59.9979 22.6364 59.9891 22.621 60.1331 22.462C60.378 22.1916 60.5825 22.2648 61.1028 22.8093C61.6648 23.3972 61.786 23.6169 62.0784 24.5763C62.2504 25.1405 62.3593 25.347 62.6387 25.6384C63.0257 26.0419 63.7908 26.4387 64.4448 26.575C65.3977 26.7735 65.7365 26.6337 65.4473 26.1614C65.3581 26.0157 65.1672 25.6634 65.0233 25.3787C64.551 24.4447 63.9931 24.0065 62.9647 23.7615C62.0064 23.5334 61.9901 23.5251 61.7124 23.129C61.5641 22.9174 61.3483 22.6416 61.2331 22.516L61.0234 22.2875L61.2661 22.3458C61.5954 22.425 62.6183 22.8051 63.1892 23.0605C63.4461 23.1755 64.1893 23.4348 64.8407 23.6369C65.4921 23.8389 66.0597 24.0256 66.1019 24.0518C66.1442 24.0779 66.6022 24.4174 67.1197 24.8063C68.0376 25.496 68.7658 26.1879 69.1463 26.7316C69.4297 27.1363 70.3387 27.8514 70.7611 28.0017C71.2901 28.19 73.414 28.2564 73.6383 28.0918C73.7889 27.9812 73.7548 27.9308 72.9316 27.0488C72.2884 26.3597 71.9367 26.0526 71.56 25.8509C71.0673 25.5871 71.0201 25.5783 69.8401 25.5315C68.8613 25.4925 68.5564 25.4512 68.2628 25.3176C67.8866 25.1465 66.6885 24.2501 66.7517 24.187C66.7713 24.1673 67.092 24.1933 67.4644 24.2448C67.8368 24.2962 69.2334 24.3512 70.5681 24.367C73.1424 24.3974 74.2698 24.4878 74.6825 24.6969C75.055 24.8856 75.678 25.3383 76.236 25.8256C76.9504 26.4497 77.579 26.8001 78.253 26.9499C78.7971 27.0709 78.9076 27.0704 79.7595 26.9435C80.2652 26.8682 80.9777 26.7655 81.3429 26.7153C82.3135 26.5817 82.3255 26.5378 81.597 25.7944C81.2601 25.4505 80.7413 24.9097 80.4444 24.5928C79.0939 23.1512 77.4087 22.9659 75.0514 23.9996L74.4721 24.2537L73.5022 24.1603C72.9689 24.1089 72.3998 24.0728 72.2378 24.0802C72.0757 24.0876 71.4335 24.0883 70.8107 24.0818L69.6783 24.0701L70.4467 23.7029C71.2268 23.3302 71.6741 23.2563 72.316 23.3939C72.7598 23.4891 73.863 23.2843 74.4145 23.0043C75.1719 22.6197 76.2706 21.7375 76.2479 21.532C76.2182 21.2618 75.2626 20.9808 74.3697 20.9798C73.7253 20.9791 73.5809 21.0075 73.1116 21.2272C72.5127 21.5075 71.9426 22.0204 71.5854 22.6004C71.3008 23.0626 70.6522 23.4609 69.608 23.8147C68.8399 24.075 68.3287 24.0874 67.0899 23.8759C65.7135 23.6409 63.5714 23.0215 63.5714 22.8586C63.5714 22.8303 63.7624 22.7345 63.996 22.6457C64.3672 22.5044 64.4961 22.4939 65.0202 22.5621C66.0013 22.6898 66.8462 22.4413 67.7775 21.7511C68.0221 21.5697 68.3043 21.3627 68.4043 21.291C68.6904 21.0863 68.6237 20.934 68.154 20.7191C67.4254 20.3859 66.8933 20.3156 66.2676 20.4699C65.5953 20.6356 65.3192 20.8454 64.695 21.6647C63.9361 22.6609 63.4597 22.8009 62.2622 22.3798C61.8497 22.2347 61.3373 22.0937 61.1236 22.0665C60.9098 22.0393 60.7286 21.9808 60.7209 21.9367C60.6974 21.8014 62.981 19.9161 64.1376 19.1158C66.1108 17.7506 66.542 17.5349 67.5465 17.4106C67.9231 17.3641 68.0298 17.3852 68.3629 17.5718C68.7963 17.8146 68.9094 17.9607 69.3505 18.8481C69.9277 20.0093 70.5096 20.3883 71.6247 20.3293C72.2115 20.2982 72.7116 20.1135 72.7116 19.9278C72.7116 19.7924 71.6292 18.8579 71.2387 18.6562C71.0737 18.571 70.6187 18.4267 70.2276 18.3356C69.8365 18.2445 69.4437 18.1211 69.3548 18.0613C69.0995 17.8898 68.6357 17.4545 68.6734 17.4219C68.7361 17.3679 69.5863 17.5116 70.4872 17.7285C72.088 18.1139 72.8178 18.2476 73.844 18.3432C74.6783 18.421 75.0389 18.5008 75.9066 18.7997C76.8881 19.1378 77.0012 19.1596 77.6052 19.1255C78.8729 19.0541 79.8268 18.3721 80.7901 16.8487C81.0516 16.4351 81.1044 16.2048 80.9583 16.1146C80.9118 16.0859 80.2751 16.067 79.5435 16.0725C78.4584 16.0809 78.1206 16.1124 77.7097 16.2436C77.0862 16.4425 76.3084 16.8648 75.6914 17.3392C75.1695 17.7406 74.2522 18.1995 73.9802 18.1954C73.6363 18.1903 72.6511 18.0045 71.0129 17.6358C69.6936 17.3388 69.1399 17.2529 68.3032 17.215L67.2517 17.1676L67.8179 16.8966C68.7041 16.4724 69.9058 16.0111 70.5056 15.8647C70.8069 15.7911 71.088 15.6996 71.1302 15.6612C71.1725 15.6229 71.2903 15.5916 71.392 15.5916C71.4936 15.5916 71.732 15.5548 71.9218 15.5098C72.1115 15.4648 72.9583 15.2999 73.8035 15.1434C74.6488 14.9868 75.395 14.836 75.4617 14.8082C75.5284 14.7804 75.6085 14.7629 75.6397 14.7692C75.8075 14.8032 77.5018 14.1303 78.4519 13.6522C80.0753 12.8354 80.4922 12.6745 80.7753 12.7557C81.2068 12.8793 81.5605 13.1029 82.3796 13.7701C84.2794 15.3176 85.5753 15.985 87.3925 16.3519C87.7484 16.4237 88.2333 16.496 88.4702 16.5125C88.7915 16.5348 89.1186 16.6524 89.7603 16.9762C90.557 17.3782 90.6602 17.4096 91.1685 17.4039C91.6901 17.3981 91.7398 17.3802 92.1772 17.0402C92.4302 16.8436 92.6511 16.6407 92.6681 16.5895C92.7048 16.4783 92.0566 16.1607 91.2852 15.912C90.6136 15.6954 90.1079 15.7263 89.4551 16.0237C88.9578 16.2503 88.6339 16.2911 88.0396 16.2019C87.2851 16.0887 86.0804 15.7565 85.522 15.5077C84.935 15.2462 84.1166 14.7791 84.1166 14.7057C84.1166 14.6817 84.9446 14.6621 85.9568 14.6621C87.7927 14.6621 87.798 14.6616 88.2421 14.4436C88.8427 14.1489 89.6932 13.4188 89.6958 13.1959C89.6979 13.0098 89.4795 12.8957 88.6517 12.6505C87.982 12.452 87.4737 12.4817 86.9072 12.7522C86.3957 12.9965 86.2361 13.1425 85.835 13.7326C85.3323 14.4723 85.3125 14.4832 84.5294 14.4432C83.679 14.4 83.3465 14.24 82.2966 13.3689C81.8962 13.0367 81.447 12.7241 81.2983 12.6743C81.1391 12.6209 81.0578 12.5539 81.1004 12.5113C81.2729 12.3389 82.8096 12.0559 84.5615 11.8737C86.3756 11.6851 88.1264 11.3417 89.2842 10.9477C89.8872 10.7424 91.0105 10.1775 91.2346 9.96671C91.8494 9.38867 92.4123 9.12575 93.035 9.12575C93.4137 9.12575 95.0003 9.90383 95.1997 10.1874C95.2841 10.3073 95.703 10.4189 96.0729 10.42C96.8171 10.4224 98.0709 9.87449 97.9114 9.61658C97.8769 9.56074 97.5525 9.37039 97.1906 9.19372C96.6045 8.90752 96.4795 8.87552 96.0454 8.90073C95.7084 8.92029 95.3967 9.00702 95.035 9.18192C94.536 9.42325 94.4988 9.4294 94.2281 9.31649C93.766 9.12373 93.7759 9.06222 94.2789 9.00371C95.0243 8.91698 95.8249 8.72171 96.3048 8.50963C96.6433 8.36003 96.8899 8.31429 97.3671 8.31251C97.7374 8.31106 98.1494 8.2544 98.3862 8.17236C98.8652 8.00643 99.5123 7.44625 99.7399 7.00051C99.9827 6.52503 100.158 5.88638 100.07 5.79844C99.9851 5.71358 99.1071 5.8328 98.4607 6.01683C97.8322 6.19585 97.298 6.66486 96.8421 7.43801C96.6274 7.80204 96.3608 8.16719 96.2496 8.24939C95.9169 8.49525 95.0098 8.70806 93.7207 8.84246C93.052 8.91221 92.4677 8.99231 92.4223 9.02036C92.1027 9.21773 93.0526 7.98866 93.9848 6.99866C94.5202 6.43007 95.6422 5.48072 96.7349 4.67177C97.0686 4.4247 97.7056 3.95286 98.1504 3.6231C98.5953 3.29342 98.996 3.00545 99.0408 2.98323C99.0857 2.961 99.3506 2.78618 99.6295 2.59479C100.203 2.20126 100.616 2.057 101.548 1.92486C102.584 1.77784 103.132 1.47208 103.375 0.904707C103.46 0.706934 103.529 0.420824 103.529 0.268959C103.529 0.009518 103.514 -0.00664327 103.267 0.00151982C103.122 0.00628836 102.685 0.0938198 102.296 0.19598ZM103.205 0.721485C103.153 0.847164 102.972 1.07832 102.802 1.23511C102.537 1.47984 102.369 1.54822 101.616 1.71771C101.134 1.82633 100.727 1.90441 100.713 1.89115C100.677 1.85834 101.749 1.16949 102.174 0.951591C102.364 0.854765 102.473 0.760041 102.417 0.741128C102.362 0.722296 101.935 0.925561 101.468 1.193C101.002 1.46044 100.602 1.64917 100.579 1.61248C100.556 1.5757 100.729 1.34576 100.962 1.10151C101.417 0.625146 101.631 0.524929 102.64 0.318832C103.219 0.200426 103.248 0.201551 103.273 0.34396C103.288 0.425995 103.257 0.595886 103.205 0.721485ZM97.1094 1.26575C97.0048 2.18979 96.7853 2.63165 96.1849 3.12685C95.7228 3.50801 95.0363 3.97839 95.0363 3.91398C95.0363 3.74918 95.3599 3.16468 95.8469 2.44972C96.1574 1.99404 96.4114 1.59583 96.4114 1.56487C96.4114 1.34811 95.4614 2.59875 95.0698 3.33108C94.8554 3.73213 94.7919 3.80034 94.7458 3.67992C94.6731 3.49079 94.8425 2.55438 95.0092 2.22333C95.2889 1.66792 95.8463 1.24223 96.6092 1.00137C97.1475 0.831405 97.1579 0.836819 97.1094 1.26575ZM7.56771 1.45358C8.5115 1.99315 9.22274 2.85836 9.34367 3.61421C9.37351 3.80059 9.38023 3.9531 9.35863 3.9531C9.33703 3.9531 9.18189 3.73059 9.01389 3.45862C8.66996 2.90183 7.50317 1.69071 7.45366 1.8391C7.43595 1.8922 7.6207 2.15068 7.86416 2.41351C8.28712 2.87 9.33064 4.43068 9.26011 4.50124C9.17186 4.58941 8.34827 4.03392 8.03136 3.6724C7.75861 3.36139 6.98921 1.98192 6.63711 1.17264C6.57798 1.03678 7.13036 1.20351 7.56771 1.45358ZM1.74856 1.52009C2.65295 1.79489 3.33718 2.30003 4.03151 3.20549C4.34866 3.61906 4.29997 3.63894 3.85008 3.27976C3.29592 2.83734 1.81747 2.0237 1.72874 2.11228C1.70949 2.13152 2.06669 2.36978 2.52248 2.64175C2.97828 2.91372 3.63953 3.35784 3.99203 3.62867L4.6329 4.12113L4.27514 4.07046C3.4598 3.95504 2.64357 3.65066 2.17831 3.28857C1.90394 3.07496 0.237028 1.46061 0.237028 1.4084C0.237028 1.3047 1.29778 1.3831 1.74856 1.52009ZM91.0311 5.10482C90.8823 5.82115 90.5521 6.86369 90.3649 7.20815C90.1328 7.63538 89.4512 8.31752 89.2564 8.31752C89.0846 8.31752 89.0905 8.29901 89.4434 7.72954C90.0229 6.79434 90.6053 5.72206 90.559 5.67567C90.5336 5.65037 90.1748 6.15066 89.7615 6.78747L89.0102 7.94534L88.9864 7.49765C88.9382 6.59462 89.4295 5.76627 90.3776 5.15169C90.9798 4.7614 91.1043 4.75252 91.0311 5.10482ZM99.8526 6.19051C99.7096 6.75966 99.0618 7.55359 98.5113 7.8342C98.2046 7.99052 97.222 8.17899 97.1394 8.09736C97.1171 8.07538 97.1883 7.99771 97.2976 7.9248C97.7514 7.62188 98.5953 6.9289 98.5953 6.85907C98.5953 6.78787 98.0882 7.08571 97.3157 7.61065C97.1235 7.74134 96.9496 7.83153 96.9293 7.81125C96.8728 7.75483 97.4456 6.93109 97.7125 6.68507C98.0318 6.39071 99.1252 6.00696 99.7163 5.98175C99.8839 5.97463 99.9004 5.99993 99.8526 6.19051ZM87.3338 7.17129C87.3919 7.42387 87.4604 7.83825 87.4861 8.09219C87.527 8.49655 87.5056 8.60032 87.313 8.92863C87.1921 9.1348 87.0645 9.2726 87.0294 9.23486C86.9944 9.19703 87.0158 8.78686 87.077 8.32334C87.2369 7.1144 87.1824 7.16313 86.813 8.55999L86.7383 8.84287L86.6003 8.56774C86.4293 8.22683 86.4244 7.83735 86.5861 7.45045C86.7393 7.08408 87.1078 6.59171 87.1769 6.66082C87.2052 6.68894 87.2757 6.91864 87.3338 7.17129ZM10.298 7.84657C10.4812 7.89862 10.6857 7.98712 10.7527 8.04313C10.8196 8.09922 11.1472 8.28285 11.4807 8.45136L12.0869 8.7576L11.5207 8.82913C10.9448 8.90187 10.2375 8.81886 8.97361 8.53016C8.36186 8.3905 8.26083 8.41612 8.70021 8.59959C9.44971 8.91254 10.6321 9.1453 11.2578 9.10319C11.5581 9.08307 11.8038 9.07919 11.8038 9.09479C11.8038 9.16591 10.9538 9.54263 10.5649 9.64382C10.0496 9.77799 9.50398 9.70218 9.07415 9.43668C8.80334 9.26945 7.45504 8.00562 7.5242 7.9838C7.5424 7.97798 7.83027 7.9282 8.16393 7.873C8.96527 7.74053 9.88544 7.72913 10.298 7.84657ZM81.69 8.07133C81.69 8.41758 81.3833 9.35367 81.1084 9.84677C80.6147 10.7323 79.9792 11.2278 78.6505 11.7632C78.2536 11.9233 77.8941 12.0863 77.8519 12.1256C77.8096 12.1648 77.7036 12.197 77.6164 12.197C77.5291 12.197 77.2969 12.2912 77.1004 12.4062C76.9039 12.5213 76.7296 12.6018 76.7129 12.5851C76.6441 12.5163 77.5828 11.556 78.61 10.6444C79.214 10.1084 79.7447 9.62912 79.7891 9.57933C79.8336 9.52954 80.0611 9.3451 80.2947 9.1694C80.6744 8.88385 80.8107 8.72163 80.6709 8.72163C80.626 8.72163 78.9491 9.98828 78.8589 10.0903C78.8367 10.1154 78.637 10.2815 78.4152 10.4593C78.1934 10.6371 77.7658 11.0143 77.4648 11.2975C77.1639 11.5807 76.9177 11.7682 76.9177 11.7141C76.9177 11.4678 77.2051 10.6508 77.4728 10.1363C77.8678 9.37687 78.5609 8.69246 79.2525 8.37887C79.7569 8.15006 81.4967 7.73188 81.6293 7.80753C81.6626 7.82652 81.69 7.94525 81.69 8.07133ZM71.1354 9.27721C70.9854 10.9145 70.0949 12.139 68.2187 13.2881C67.7832 13.5548 67.2265 13.9275 66.9818 14.1162C66.7369 14.305 66.5225 14.4453 66.5052 14.4281C66.488 14.4108 66.5325 14.2564 66.6041 14.0849C66.8913 13.3976 67.4936 12.5033 68.4199 11.3888C68.9556 10.7442 69.3941 10.1815 69.3945 10.1384C69.3955 10.0238 68.414 11.0068 67.8114 11.724C67.5258 12.0638 67.2921 12.3638 67.2921 12.3905C67.2921 12.4173 67.1691 12.612 67.0187 12.8232C66.8684 13.0344 66.659 13.371 66.5536 13.571L66.3619 13.9347L66.3375 13.5109C66.2785 12.4864 66.701 11.4009 67.4483 10.6578C67.8844 10.2241 68.6446 9.7362 69.3952 9.40822C69.5954 9.32077 70.0492 9.09689 70.4037 8.91076C70.7582 8.72454 71.0806 8.59215 71.12 8.61656C71.1597 8.64113 71.1666 8.93598 71.1354 9.27721ZM37.4072 8.93557C37.7171 9.09762 38.0397 9.2886 38.124 9.35989C38.3641 9.56292 38.5739 10.1139 38.6244 10.6741L38.6706 11.1867L38.4346 10.7729C38.1321 10.2426 37.4598 9.36822 37.3546 9.36822C37.2583 9.36822 37.298 9.43926 37.6992 9.98667C38.2197 10.6965 38.6582 11.6502 38.6582 12.0721C38.6582 12.1658 37.5363 11.2987 37.2549 10.9875C37.0945 10.8101 36.9039 10.5278 36.8312 10.3601C36.6941 10.0432 36.5434 8.927 36.6133 8.74499C36.6743 8.58633 36.7947 8.61527 37.4072 8.93557ZM21.8644 9.25119C22.6201 9.40418 23.0041 9.60745 23.5509 10.1436C24.1125 10.6942 24.3643 11.1908 24.5812 12.1759C24.797 13.1556 24.7919 13.1836 24.4828 12.716C23.905 11.8416 22.859 10.9585 21.7394 10.3994C21.2869 10.1735 20.8479 10.1136 21.2601 10.334C21.7117 10.5756 22.8797 11.445 23.3164 11.8649C23.842 12.37 24.5254 13.2246 24.4873 13.329C24.452 13.4258 22.6833 12.6866 22.0929 12.3283C21.5613 12.0055 21.0351 11.4597 20.5641 10.7422C20.4036 10.4977 20.1295 10.0803 19.9549 9.81444C19.6478 9.34704 19.6425 9.32716 19.791 9.20705C19.9781 9.05567 21.0071 9.07758 21.8644 9.25119ZM97.0381 9.34712C97.3606 9.51426 97.6244 9.67114 97.6245 9.69563C97.625 9.83659 96.7979 10.1223 96.2896 10.1567C95.7117 10.1959 95.1172 10.0441 95.1172 9.85728C95.1172 9.76869 95.2789 9.75398 96.1889 9.7598C96.4893 9.76166 96.7349 9.72893 96.7349 9.68698C96.7349 9.64503 96.5439 9.60672 96.3103 9.60187C96.0767 9.59711 95.6672 9.56979 95.4003 9.54126L94.915 9.48945L95.279 9.27527C95.8344 8.94842 96.3064 8.96774 97.0381 9.34712ZM31.2903 10.139C33.0097 10.348 33.8063 10.7508 34.2167 11.6187C34.3552 11.9116 34.5758 12.307 34.7068 12.4974C34.838 12.6878 34.9194 12.8436 34.8879 12.8436C34.8414 12.8436 34.0832 12.4472 33.1175 11.9177C33.0285 11.8689 32.6331 11.619 32.2387 11.3622C31.8443 11.1055 31.5058 10.9112 31.4866 10.9304C31.3843 11.0327 32.9419 12.1479 33.987 12.7208C34.2873 12.8854 34.533 13.0489 34.533 13.084C34.533 13.2253 33.5248 13.2537 33.0412 13.1261C32.3987 12.9565 32.0777 12.7452 31.7074 12.2483C31.4443 11.8952 30.3269 9.99734 30.3269 9.90359C30.3269 9.88621 30.4783 9.9242 30.6635 9.98788C30.8485 10.0517 31.1307 10.1196 31.2903 10.139ZM44.2454 10.2992C45.3892 10.4658 46.0816 10.8039 46.8699 11.5811C47.5104 12.2126 47.7891 12.6907 47.9828 13.4902C48.1543 14.1981 48.2675 14.7833 48.2331 14.7833C48.2176 14.7833 48.1083 14.6288 47.9903 14.4398C47.6148 13.8388 46.6622 12.7717 45.874 12.0691C45.4541 11.6949 45.0738 11.3888 45.0288 11.3888C44.9837 11.3888 45.3064 11.7629 45.7458 12.2201C47.2587 13.7945 48.237 15.0186 48.0955 15.16C48.0695 15.186 47.7099 15.0727 47.2965 14.9083C45.7697 14.3011 44.9987 13.7405 44.4144 12.813C43.8346 11.8925 43.0153 10.3401 43.0661 10.2581C43.1328 10.1502 43.25 10.1543 44.2454 10.2992ZM55.697 13.0143C56.4126 13.4785 56.7456 14.0221 56.9293 15.0258C57.0364 15.6114 57.1261 16.4806 57.0792 16.4806C57.0294 16.4806 55.8089 14.683 55.5198 14.1837C55.3931 13.9651 55.2765 13.8253 55.2606 13.8731C55.2094 14.0264 55.6831 14.9657 56.1619 15.6603C56.4175 16.0311 56.611 16.35 56.592 16.3691C56.5288 16.4321 55.5865 15.6918 55.3803 15.417C54.9417 14.8328 54.6363 13.9319 54.4739 12.7434L54.4214 12.3603L54.8105 12.526C55.0245 12.617 55.4235 12.8368 55.697 13.0143ZM89.0102 12.9946L89.4147 13.1804L88.9698 13.5876C88.3162 14.1861 87.8146 14.3932 86.9169 14.4353C85.9871 14.4789 86.0589 14.3993 87.4473 13.8482C87.9874 13.6338 88.3879 13.4445 88.3372 13.4276C88.154 13.3666 86.9382 13.7806 86.0776 14.197C85.9327 14.267 85.7915 14.3016 85.7638 14.2739C85.6801 14.1904 86.557 13.236 86.9476 12.9854C87.2852 12.7687 87.3585 12.7538 87.9587 12.7803C88.4154 12.8004 88.7248 12.8635 89.0102 12.9946ZM50.7349 14.3821C50.941 14.5635 51.2032 14.9073 51.3253 15.1566C51.5366 15.5883 51.5412 15.6245 51.447 16.1348C51.3497 16.6628 51.1692 17.0861 50.8951 17.429C50.7549 17.6045 50.7507 17.5787 50.7472 16.4995C50.7448 15.7475 50.7106 15.3374 50.6411 15.2279C50.5558 15.0934 50.5445 15.2154 50.5736 15.9553C50.5928 16.4442 50.5853 17.0262 50.5569 17.2484L50.5052 17.6525L50.2822 17.1737C49.9241 16.4046 49.8636 15.9511 50.018 15.1928C50.0773 14.9009 50.1499 14.5258 50.1792 14.359C50.2085 14.1924 50.262 14.0559 50.2982 14.0559C50.3344 14.0559 50.531 14.2027 50.7349 14.3821ZM18.5969 14.699C18.6644 14.7336 19.0425 14.8462 19.4372 14.9491C19.9531 15.0837 20.1107 15.1525 19.9983 15.1941C19.5625 15.3552 17.2106 15.8504 16.4189 15.9477C15.9219 16.0088 15.4932 16.081 15.4661 16.1081C15.2744 16.2996 18.2215 15.9427 19.3837 15.6336C19.8104 15.5201 20.1746 15.4424 20.193 15.4607C20.2114 15.4791 19.9602 15.7182 19.6348 15.992C18.0417 17.3328 16.9935 17.4305 14.8872 16.4349C13.7261 15.886 13.7134 15.964 15.0752 15.2798C15.8043 14.9135 16.3825 14.7049 16.9806 14.5923C17.2516 14.5413 18.4426 14.6199 18.5969 14.699ZM63.4948 16.1488C63.2119 17.9929 62.8859 18.655 61.9002 19.3868C61.6404 19.5798 61.292 19.8863 61.1259 20.0681L60.824 20.3987L60.8571 20.1571C60.9127 19.7517 61.2989 18.5097 61.4807 18.1519C61.7027 17.7148 62.0398 17.2208 62.5836 16.5357C62.8241 16.2326 62.9994 15.963 62.9731 15.9367C62.9029 15.8666 62.6365 16.1258 62.1315 16.7558C61.2994 17.7937 60.9797 18.4674 60.7368 19.6953C60.6816 19.9743 60.6156 20.1816 60.5901 20.1561C60.5287 20.0948 60.3569 19.4617 60.2477 18.8942C60.1766 18.5249 60.1847 18.3427 60.2902 17.9311C60.4456 17.325 60.7949 16.6892 61.1802 16.3114C61.522 15.976 63.6018 14.8535 63.6353 14.9861C63.6483 15.0374 63.585 15.5605 63.4948 16.1488ZM91.6772 16.2823C92.0317 16.428 92.3338 16.583 92.3484 16.6268C92.3862 16.7401 91.4156 17.208 91.1427 17.208C90.8887 17.208 89.8645 16.8444 89.7383 16.7093C89.681 16.648 89.8578 16.6341 90.3449 16.6618C91.4677 16.7257 91.4669 16.5995 90.3436 16.4708L89.3338 16.3552L89.5941 16.2151C90.2458 15.8643 90.6954 15.8788 91.6772 16.2823ZM80.6964 16.303C80.8275 16.3863 80.6799 16.6672 80.1529 17.3372C79.9306 17.6199 79.7487 17.8733 79.7487 17.9005C79.7487 18.0116 79.3497 18.2855 78.7781 18.5666C78.215 18.8435 78.1191 18.8649 77.4434 18.8649C76.8716 18.8649 76.607 18.8235 76.2099 18.6722C75.9319 18.5662 75.7044 18.4527 75.7044 18.4199C75.7044 18.3871 75.8954 18.336 76.129 18.3062C76.5656 18.2504 78.677 17.5708 78.8145 17.4418C78.9573 17.3077 78.6945 17.3663 77.5234 17.7296C76.4355 18.0671 75.0265 18.3358 74.9173 18.2265C74.8905 18.1998 74.8837 18.1671 74.9022 18.1539C76.5596 16.9729 77.5231 16.4614 78.3535 16.3218C78.8584 16.2369 80.5706 16.2232 80.6964 16.303ZM54.8798 17.2025C55.3727 17.3756 55.8985 17.7212 56.2602 18.1096C56.5345 18.404 56.9386 18.986 56.9386 19.0863C56.9386 19.1208 56.7293 19.0088 56.4735 18.8375C55.8635 18.4288 54.5929 17.7642 54.5929 17.8536C54.5929 17.8922 54.9061 18.1173 55.289 18.3538C55.6718 18.5905 56.0789 18.8607 56.1937 18.9544L56.4024 19.1248L55.9449 19.0627C54.8978 18.9207 54.6001 18.7412 53.6763 17.6946C53.2076 17.1637 53.1962 17.1467 53.2525 17.0556C53.3238 16.9405 54.4139 17.0389 54.8798 17.2025ZM70.2672 18.5425C70.8834 18.6876 71.3506 18.9161 71.7814 19.2831C72.5041 19.8987 72.5144 19.9343 72.0178 20.1063C71.5884 20.2551 70.7919 20.126 70.3544 19.8368C70.0518 19.6367 69.5124 18.9229 69.5986 18.8367C69.6206 18.8148 69.7203 18.8717 69.8202 18.9631C70.1043 19.2229 71.3365 19.8133 71.3365 19.6894C71.3365 19.6703 71.0544 19.4898 70.7096 19.2885C70.1349 18.9529 69.5025 18.4187 69.6834 18.4216C69.7251 18.4222 69.9879 18.4766 70.2672 18.5425ZM21.7614 18.8106C21.9569 18.906 22.2261 19.077 22.3596 19.1907L22.6022 19.3973L22.2447 19.3439C21.3937 19.2169 20.3601 19.2471 20.5144 19.3944C20.5504 19.4289 20.944 19.4807 21.3889 19.5097C22.4062 19.5757 22.9216 19.6937 22.8051 19.834C22.6513 20.0191 21.8101 20.2393 21.3041 20.2268C20.9084 20.2171 20.6266 20.1334 19.828 19.7882C19.2851 19.5535 18.841 19.3341 18.841 19.3005C18.841 19.1857 19.2918 18.9189 19.7741 18.7483C20.3933 18.5292 21.2393 18.5557 21.7614 18.8106ZM36.2316 19.8562C36.4318 19.9559 36.7776 20.199 37.0001 20.3964L37.4045 20.7552L36.5373 20.4769C35.6878 20.2041 35.312 20.1299 35.4673 20.2656C35.5701 20.3556 37.3907 21.0875 37.5116 21.0875C37.5639 21.0875 37.6067 21.1166 37.6067 21.1521C37.6067 21.1876 37.7347 21.2629 37.8911 21.3194C38.0475 21.376 38.1567 21.4526 38.1336 21.4898C38.0791 21.5779 37.3976 21.6699 36.8144 21.6677C36.1665 21.6653 35.7984 21.4808 35.0856 20.801C34.7445 20.4757 34.3521 20.1509 34.2135 20.0793C34.0749 20.0077 33.9827 19.9148 34.0086 19.873C34.1872 19.5842 35.6636 19.573 36.2316 19.8562ZM67.7775 20.7946C68.0221 20.8895 68.2223 21.0117 68.2223 21.0661C68.2223 21.1733 67.5417 21.7093 67.011 22.0201C66.5008 22.3188 65.7403 22.485 65.1804 22.42C64.9182 22.3896 64.7038 22.3331 64.7038 22.2942C64.7038 22.1801 65.985 21.5988 66.6682 21.403C67.0145 21.3038 67.2693 21.1942 67.2344 21.1595C67.1439 21.0697 65.7014 21.4282 65.2823 21.6446C65.0889 21.7445 64.9117 21.8072 64.8885 21.784C64.836 21.7315 65.3611 21.1118 65.5994 20.9449C66.2229 20.5086 66.9167 20.4607 67.7775 20.7946ZM27.1793 22.1113C27.3991 23.3537 26.6705 24.544 25.4574 24.924C24.6726 25.1699 23.856 25.4885 23.856 25.5489C23.856 25.5816 23.7995 25.5868 23.7304 25.5604C23.5694 25.4986 23.6221 25.2486 23.9906 24.3279C24.3817 23.3504 24.6895 22.9321 25.4333 22.3672C25.7892 22.097 26.1827 21.7621 26.3078 21.6231L26.5353 21.3704L26.4789 21.6128C26.384 22.0205 25.2085 24.005 24.77 24.4976C24.703 24.5728 24.6628 24.6781 24.6807 24.7316C24.7198 24.849 25.3594 24.0512 25.9857 23.1038C26.3796 22.508 26.5455 22.1741 26.8872 21.2896C26.9433 21.1442 26.9568 21.1523 27.0203 21.3704C27.0592 21.5037 27.1307 21.8371 27.1793 22.1113ZM75.2892 21.292C76.112 21.4858 76.1114 21.4804 75.3635 22.0714C74.2019 22.9893 73.6565 23.1829 72.4285 23.1134L71.6196 23.0677L72.2667 22.732C72.6226 22.5474 73.3506 22.2618 73.8844 22.0972C74.4183 21.9327 74.8897 21.7655 74.9319 21.7257C75.1754 21.4961 73.6056 21.8771 72.6846 22.271C72.3308 22.4223 72.0197 22.5244 71.9932 22.4981C71.9522 22.457 72.624 21.7872 72.9649 21.5291C73.185 21.3625 73.894 21.1782 74.3293 21.1745C74.574 21.1724 75.0059 21.2253 75.2892 21.292ZM56.3663 22.4754C56.5921 22.5274 56.7769 22.5953 56.7769 22.6262C56.7769 22.727 55.7075 23.1604 54.6047 23.5066C53.5091 23.8506 53.2377 24.0258 54.0869 23.841C54.6829 23.7113 55.737 23.3901 56.2309 23.1875C56.4422 23.1009 56.6151 23.0633 56.6151 23.104C56.6151 23.2505 55.826 23.9837 55.476 24.1625C55.2795 24.2629 54.9367 24.3936 54.7143 24.453C54.2484 24.5773 52.6848 24.601 52.6129 24.4848C52.48 24.27 53.2837 23.1996 53.8322 22.8608C54.5532 22.4156 55.4896 22.2732 56.3663 22.4754ZM15.1341 23.4812C14.8136 23.7735 14.5097 24.0909 14.4585 24.1867C14.3502 24.3899 14.2786 24.442 15.3564 23.533C15.7381 23.2111 16.0757 22.9474 16.1067 22.9471C16.1727 22.9463 15.9214 23.7036 15.7424 24.0446C15.5819 24.3504 15.0729 24.8311 14.7228 25.0074C14.4187 25.1605 13.6036 25.4519 13.4792 25.4519C13.3505 25.4519 13.4657 24.7707 13.6635 24.3623C13.9067 23.8603 14.2892 23.5032 14.8997 23.2084C15.8581 22.7456 15.8944 22.7878 15.1341 23.4812ZM33.7241 23.1856C34.2358 23.3581 34.5997 23.5064 34.533 23.5153C34.4663 23.5241 34.3847 23.5271 34.3519 23.522C34.2369 23.5042 31.7524 23.8389 31.7139 23.8774C31.5654 24.0259 31.8406 24.0176 34.4926 23.7931L34.9779 23.7521L34.7352 23.9606C33.6204 24.9186 32.7253 25.1703 31.5972 24.843C31.2684 24.7476 30.1651 24.2149 30.1651 24.1514C30.1651 23.9713 31.4044 23.1351 31.9042 22.978C32.4201 22.816 32.7342 22.8518 33.7241 23.1856ZM9.57945 23.5378C8.51498 24.0561 7.79848 24.4672 7.85721 24.5259C7.87492 24.5435 8.39705 24.337 9.01753 24.0669C10.543 23.4028 10.9141 23.2603 10.9141 23.3384C10.9141 23.3749 10.6218 23.6999 10.2645 24.0607C9.51781 24.8149 8.93802 25.142 8.00216 25.3372C7.06856 25.5318 6.62983 25.5532 6.5737 25.407C6.434 25.0431 7.34867 23.7679 7.95573 23.48C8.31672 23.3089 9.50082 23.0738 10.1385 23.0467L10.631 23.0258L9.57945 23.5378ZM79.3443 23.9522C79.6674 24.1153 81.7847 26.2585 81.7441 26.3814C81.7294 26.4258 81.4655 26.4865 81.1577 26.5162C80.8499 26.5459 80.3317 26.6277 80.0063 26.698C79.1617 26.8805 78.5605 26.8616 77.9295 26.6328C77.3282 26.4148 76.9952 26.201 76.2578 25.5601C75.9757 25.3148 75.6084 25.0439 75.4415 24.9581C75.2747 24.8723 75.1382 24.7796 75.1382 24.7523C75.1382 24.6457 77.3079 25.0275 78.7255 25.3836C79.2527 25.5159 79.7009 25.6074 79.7215 25.5869C79.7716 25.5368 78.6249 25.1584 77.9685 25.0084C77.6797 24.9423 76.9702 24.7794 76.3919 24.6463C75.8136 24.5131 75.2584 24.4035 75.1584 24.4027C74.8431 24.4002 74.9595 24.265 75.4415 24.0741C75.6973 23.9728 75.943 23.8646 75.9875 23.8336C76.1342 23.7316 76.6236 23.6514 77.403 23.6017C78.2091 23.5502 78.7362 23.6454 79.3443 23.9522ZM39.7572 23.9769C39.692 24.0992 39.3683 24.5407 39.0378 24.9582C38.7073 25.3756 38.3726 25.8303 38.2939 25.9685C38.0861 26.3335 38.9341 25.5053 39.5678 24.7245L40.0597 24.1184L40.0088 24.5225C39.8736 25.5964 39.5426 26.0807 38.6414 26.5236C38.3013 26.6909 37.907 26.8507 37.7654 26.8791C37.5084 26.9304 37.5079 26.9298 37.5661 26.6559C37.7579 25.7544 38.3921 24.5986 38.8296 24.3534C38.9015 24.313 39.1563 24.1622 39.3958 24.0181C39.6352 23.874 39.8411 23.7559 39.8534 23.7554C39.8656 23.755 39.8224 23.8546 39.7572 23.9769ZM63.0184 23.9598C63.5812 24.1087 64.1232 24.404 64.389 24.7063C64.6275 24.9779 65.27 26.1767 65.27 26.3504C65.27 26.4152 65.151 26.4296 64.8858 26.3967C64.2435 26.317 63.6938 26.1139 63.1652 25.7612C62.7685 25.4965 62.6213 25.3383 62.4703 25.0144C62.1452 24.3165 62.2159 24.2463 62.7481 24.7387C63.2054 25.1618 64.3802 25.8602 64.3802 25.709C64.3802 25.6677 64.0877 25.4421 63.7301 25.2075C63.1228 24.8091 62.2772 24.0036 62.2772 23.8235C62.2772 23.7774 62.3541 23.7683 62.4592 23.8018C62.5592 23.8339 62.8109 23.9049 63.0184 23.9598ZM71.3183 26.0181C71.7156 26.1926 73.2778 27.6569 73.2778 27.8549C73.2778 27.9598 73.0041 27.9808 71.9027 27.9604C71.2789 27.9489 70.6225 27.7769 70.2102 27.5168C69.8773 27.3068 69.0236 26.3621 69.0988 26.2869C69.1254 26.2604 69.3511 26.3351 69.6005 26.4531C70.0526 26.667 71.8517 27.3108 71.9973 27.3108C72.1881 27.3108 71.9393 27.1446 71.5169 26.9897C70.7275 26.7002 69.4496 26.1552 69.1525 25.9814L68.8694 25.8156L69.3952 25.7752C70.1063 25.7206 70.8565 25.8153 71.3183 26.0181ZM50.392 28.8035C50.3953 29.9136 50.4256 30.5373 50.4739 30.489C50.5411 30.4219 50.6198 28.853 50.627 27.4361C50.6299 26.8834 50.6724 26.9015 51.0282 27.6063C51.4237 28.3902 51.5665 29.0857 51.4598 29.7085C51.3659 30.2561 50.8613 31.4253 50.6276 31.6366C50.4992 31.7526 50.4704 31.7423 50.2748 31.51C49.3807 30.4482 49.2021 29.1884 49.7744 27.9809C50.1027 27.2886 50.3007 26.9553 50.3528 27.0074C50.3714 27.0261 50.3891 27.8343 50.392 28.8035ZM43.8716 27.301C44.2585 27.3871 44.5914 27.4739 44.6113 27.4937C44.6312 27.5136 44.4373 27.552 44.1805 27.579C43.5415 27.6463 42.912 27.876 41.9443 28.3948C41.1423 28.8251 40.3941 29.3148 40.4517 29.3722C40.4675 29.3881 41.0862 29.0982 41.8265 28.7279C43.1825 28.0497 43.9511 27.7958 44.6481 27.7958H44.9845L44.7535 28.0182C44.6265 28.1406 44.3041 28.4874 44.0372 28.789C43.2787 29.646 42.8554 29.8042 40.7613 30.0137C39.0012 30.1897 39.1137 30.2032 39.1649 29.8218C39.3063 28.7685 40.4956 27.586 41.651 27.3501C41.8068 27.3183 41.9799 27.2676 42.036 27.2374C42.2555 27.1188 43.2007 27.1516 43.8716 27.301ZM53.8447 31.3924C54.0668 32.0592 54.2942 32.8048 54.3502 33.0493C54.4062 33.2937 54.4826 33.5483 54.52 33.615C54.7685 34.0578 54.3347 32.0112 53.9148 30.7594C53.7631 30.3073 53.6513 29.9247 53.6662 29.9088C53.7333 29.8376 54.6959 30.6679 54.9148 30.9858C55.3803 31.6618 55.5722 32.4895 55.4673 33.3676C55.4006 33.9259 54.9236 35.3398 54.7431 35.5143C54.5985 35.6542 53.6368 34.5448 53.3067 33.8575C53.0205 33.2614 53.0157 33.2351 53.0226 32.2814C53.0264 31.748 53.0509 31.0933 53.077 30.8266C53.1032 30.5599 53.129 30.178 53.1344 29.978L53.1441 29.6143L53.2925 29.8972C53.3742 30.0528 53.6226 30.7256 53.8447 31.3924ZM46.3395 32.2208C47.1278 33.4207 47.3137 34.3805 46.9965 35.6131C46.9025 35.9787 46.7882 36.3759 46.7425 36.4959L46.6595 36.7142L46.2537 36.3163C45.7518 35.8242 45.3094 34.9566 45.2473 34.3424C45.2167 34.0394 45.2635 33.591 45.3944 32.9342C45.5762 32.0217 45.6954 31.8579 45.6954 32.5204C45.6954 32.8818 46.0172 34.7572 46.1052 34.9082C46.1583 34.9994 46.1764 34.9763 46.1783 34.8148C46.1806 34.604 45.9865 32.6924 45.8943 32.0188C45.8684 31.8298 45.8774 31.6753 45.9141 31.6753C45.9509 31.6753 46.1423 31.9207 46.3395 32.2208ZM40.2954 34.8061C40.1588 35.1068 39.9321 35.6329 39.7915 35.9754C39.0966 37.6683 37.9636 38.6802 36.0699 39.2993C35.7362 39.4084 35.3049 39.5615 35.1114 39.6395C34.8141 39.7596 34.7485 39.764 34.688 39.6685C34.4582 39.3059 34.7592 37.7641 35.2503 36.7885C35.5558 36.1816 36.1786 35.476 36.6149 35.2428C37.0157 35.0284 39.5335 34.2202 39.5984 34.285C39.617 34.3036 39.4767 34.4215 39.2867 34.547C38.457 35.0951 35.0839 38.7882 35.5711 38.6152C35.6169 38.5989 36.1209 38.0884 36.6912 37.4806C37.827 36.2701 38.867 35.2837 39.5514 34.7675C40.0345 34.403 40.4503 34.1663 40.5071 34.2232C40.5272 34.2432 40.4318 34.5055 40.2954 34.8061Z" fill="var(--theme-color-contrary, #282828)"/>
</g>
<defs>
<clipPath id="clip0_71_186">
<rect width="104" height="40" fill="white"/>
</clipPath>
</defs>
</svg>